<svg xmlns="http://www.w3.org/2000/svg" width="53.419" height="52.066" viewBox="0 0 53.419 52.066">
  <path id="Icon_awesome-arrow-right" data-name="Icon awesome-arrow-right" d="M22.713,6.135l2.647-2.647a2.85,2.85,0,0,1,4.042,0L52.579,26.653a2.85,2.85,0,0,1,0,4.042L29.4,53.873a2.85,2.85,0,0,1-4.042,0l-2.647-2.647a2.865,2.865,0,0,1,.048-4.089L37.127,33.449H2.861A2.855,2.855,0,0,1,0,30.588V26.773a2.855,2.855,0,0,1,2.861-2.861H37.127L22.76,10.224A2.844,2.844,0,0,1,22.713,6.135Z" transform="translate(0 -2.647)" fill="#fff"/>
</svg>
