<svg xmlns="http://www.w3.org/2000/svg" width="41.616" height="32.368" viewBox="0 0 41.616 32.368">
  <path id="Icon_awesome-shopping-basket" data-name="Icon awesome-shopping-basket" d="M41.616,15.544V16.7a1.734,1.734,0,0,1-1.734,1.734H39.3L37.418,31.641a3.468,3.468,0,0,1-3.433,2.978H7.632A3.468,3.468,0,0,1,4.2,31.641L2.312,18.434H1.734A1.734,1.734,0,0,1,0,16.7V15.544A1.734,1.734,0,0,1,1.734,13.81H6.6L14.314,3.2a2.312,2.312,0,1,1,3.74,2.72L12.317,13.81H29.3L23.562,5.922A2.312,2.312,0,0,1,27.3,3.2L35.017,13.81h4.865A1.734,1.734,0,0,1,41.616,15.544ZM22.542,28.26V20.168a1.734,1.734,0,1,0-3.468,0V28.26a1.734,1.734,0,1,0,3.468,0Zm8.092,0V20.168a1.734,1.734,0,1,0-3.468,0V28.26a1.734,1.734,0,1,0,3.468,0Zm-16.184,0V20.168a1.734,1.734,0,1,0-3.468,0V28.26a1.734,1.734,0,1,0,3.468,0Z" transform="translate(0 -2.25)" fill="#e4e4e4"/>
</svg>
