<svg xmlns="http://www.w3.org/2000/svg" width="14" height="14" viewBox="0 0 14 14">
  <path id="Tracé_40" data-name="Tracé 40" d="M7,1.244a21.463,21.463,0,0,1,2.8.078,3.607,3.607,0,0,1,1.322.233,2.732,2.732,0,0,1,1.322,1.322A3.607,3.607,0,0,1,12.678,4.2c0,.7.078.933.078,2.8a21.463,21.463,0,0,1-.078,2.8,3.607,3.607,0,0,1-.233,1.322,2.732,2.732,0,0,1-1.322,1.322,3.607,3.607,0,0,1-1.322.233c-.7,0-.933.078-2.8.078a21.463,21.463,0,0,1-2.8-.078,3.607,3.607,0,0,1-1.322-.233,2.732,2.732,0,0,1-1.322-1.322A3.607,3.607,0,0,1,1.322,9.8c0-.7-.078-.933-.078-2.8a21.463,21.463,0,0,1,.078-2.8,3.607,3.607,0,0,1,.233-1.322A2.793,2.793,0,0,1,2.1,2.1a1.315,1.315,0,0,1,.778-.544A3.607,3.607,0,0,1,4.2,1.322,21.463,21.463,0,0,1,7,1.244M7,0A22.981,22.981,0,0,0,4.122.078,4.8,4.8,0,0,0,2.411.389a3.045,3.045,0,0,0-1.244.778A3.045,3.045,0,0,0,.389,2.411,3.544,3.544,0,0,0,.078,4.122,22.981,22.981,0,0,0,0,7,22.981,22.981,0,0,0,.078,9.878a4.8,4.8,0,0,0,.311,1.711,3.045,3.045,0,0,0,.778,1.244,3.045,3.045,0,0,0,1.244.778,4.8,4.8,0,0,0,1.711.311A22.981,22.981,0,0,0,7,14a22.981,22.981,0,0,0,2.878-.078,4.8,4.8,0,0,0,1.711-.311,3.263,3.263,0,0,0,2.022-2.022,4.8,4.8,0,0,0,.311-1.711C13.922,9.1,14,8.867,14,7a22.981,22.981,0,0,0-.078-2.878,4.8,4.8,0,0,0-.311-1.711,3.045,3.045,0,0,0-.778-1.244A3.045,3.045,0,0,0,11.589.389,4.8,4.8,0,0,0,9.878.078,22.981,22.981,0,0,0,7,0M7,3.422A3.52,3.52,0,0,0,3.422,7,3.578,3.578,0,1,0,7,3.422M7,9.333A2.292,2.292,0,0,1,4.667,7,2.292,2.292,0,0,1,7,4.667,2.292,2.292,0,0,1,9.333,7,2.292,2.292,0,0,1,7,9.333m3.733-6.922a.856.856,0,1,0,.856.856.863.863,0,0,0-.856-.856" fill="#fff" fill-rule="evenodd"/>
</svg>
