<svg xmlns="http://www.w3.org/2000/svg" width="330.54" height="203.762" viewBox="0 0 330.54 203.762">
  <g id="Composant_23_1" data-name="Composant 23 – 1" transform="translate(0 1)">
    <g id="Ellipse_2" data-name="Ellipse 2" transform="translate(0 188.762)" fill="#3b3737" stroke="#707070" stroke-width="1">
      <ellipse cx="164" cy="7" rx="164" ry="7" stroke="none"/>
      <ellipse cx="164" cy="7" rx="163.5" ry="6.5" fill="none"/>
    </g>
    <g id="_3-trees" data-name="3-trees" transform="translate(0.408)">
      <path id="Icon_awesome-tree" data-name="Icon awesome-tree" d="M130.815,107.218,103.19,81.585h10.592a8.145,8.145,0,0,0,7.186-3.7,5.381,5.381,0,0,0-1.134-6.813L92.816,45.325h9.99a8.054,8.054,0,0,0,7.213-3.855,5.469,5.469,0,0,0-1.466-6.821L70.423,1.37a6.617,6.617,0,0,0-8.064,0L24.225,34.649a5.474,5.474,0,0,0-1.466,6.821,8.06,8.06,0,0,0,7.217,3.855h9.99L12.945,71.078a5.388,5.388,0,0,0-1.131,6.81A8.145,8.145,0,0,0,19,81.585H29.592L1.966,107.218A5.409,5.409,0,0,0,.735,114.09,8.309,8.309,0,0,0,8,117.844H55.325v6.926L44.851,138.48c-1.84,3.014.837,6.561,4.948,6.561H82.982c4.111,0,6.788-3.547,4.948-6.561L77.456,124.77v-6.926h47.325a8.309,8.309,0,0,0,7.265-3.753A5.409,5.409,0,0,0,130.815,107.218Z" transform="translate(197.351 49.341)" fill="#57453b"/>
      <path id="Icon_awesome-tree-2" data-name="Icon awesome-tree" d="M130.815,107.218,103.19,81.585h10.592a8.145,8.145,0,0,0,7.186-3.7,5.381,5.381,0,0,0-1.134-6.813L92.816,45.325h9.99a8.054,8.054,0,0,0,7.213-3.855,5.469,5.469,0,0,0-1.466-6.821L70.423,1.37a6.617,6.617,0,0,0-8.064,0L24.225,34.649a5.474,5.474,0,0,0-1.466,6.821,8.06,8.06,0,0,0,7.217,3.855h9.99L12.945,71.078a5.388,5.388,0,0,0-1.131,6.81A8.145,8.145,0,0,0,19,81.585H29.592L1.966,107.218A5.409,5.409,0,0,0,.735,114.09,8.309,8.309,0,0,0,8,117.844H55.325v6.926L44.851,138.48c-1.84,3.014.837,6.561,4.948,6.561H82.982c4.111,0,6.788-3.547,4.948-6.561L77.456,124.77v-6.926h47.325a8.309,8.309,0,0,0,7.265-3.753A5.409,5.409,0,0,0,130.815,107.218Z" transform="translate(0 49.341)" fill="#57453b"/>
      <path id="Icon_awesome-tree-3" data-name="Icon awesome-tree" d="M175.317,143.692l-37.023-34.354h14.195c4.175,0,7.869-1.9,9.63-4.958a7.212,7.212,0,0,0-1.52-9.13L124.391,60.745h13.388c4.217,0,8.017-2.031,9.667-5.167a7.33,7.33,0,0,0-1.965-9.142l-51.1-44.6a8.868,8.868,0,0,0-10.807,0l-51.107,44.6A7.336,7.336,0,0,0,30.5,55.578c1.65,3.136,5.455,5.167,9.672,5.167H53.561L17.349,95.258a7.221,7.221,0,0,0-1.515,9.127c1.761,3.056,5.45,4.954,9.63,4.954H39.658L2.635,143.692a7.249,7.249,0,0,0-1.65,9.21c1.738,3.056,5.561,5.03,9.737,5.03H74.146v9.282L60.109,185.589c-2.465,4.039,1.121,8.792,6.632,8.792h44.47c5.51,0,9.1-4.753,6.632-8.792l-14.037-18.375v-9.282H167.23c4.175,0,8-1.974,9.737-5.03A7.249,7.249,0,0,0,175.317,143.692Z" transform="translate(74.338 0.001)" fill="#5e6e3f" stroke="#5e6e3f" stroke-width="2"/>
    </g>
  </g>
</svg>
